<?xml version="1.0" encoding="iso-8859-1"?>
<!DOCTYPE svg PUBLIC "-//W3C//DTD SVG 1.1//EN" "http://www.w3.org/Graphics/SVG/1.1/DTD/svg11.dtd">
<svg version="1.1" id="Capa_1" xmlns="http://www.w3.org/2000/svg" xmlns:xlink="http://www.w3.org/1999/xlink" x="0px" y="0px"
	 viewBox="0 0 311.604 311.604" style="enable-background:new 0 0 311.604 311.604;" xml:space="preserve">
<path fill="#EEEEEE" d="M300.576,96.069c-6.09,0-11.023,4.939-11.023,11.023c0,2.479,0.846,4.738,2.22,6.58l-15.914,27.303
	c-1.822-0.029-3.828,0.076-6.1,0.395v-24.111c3.959-1.678,6.732-5.596,6.732-10.166c0-6.084-4.931-11.023-11.021-11.023
	c-6.09,0-11.026,4.939-11.026,11.023c0,4.57,2.78,8.488,6.736,10.166v26.092c-10.649,3.258-25.504,10.482-47.285,25.285
	c2.717-4.525,10.932-20.924-14.298-24.41c-5.569-35.729-36.391-63.096-73.686-63.096c-41.237,0-74.669,33.438-74.669,74.67
	c0,2.52,0.133,4.996,0.372,7.451l0,0c0,0-33.936,14.293-6.621,29.416c-11.851,5.926-34.57,22.387-34.57,22.387
	s-26.646,15.506,5.266,15.42h198.863c0,0,20.717,0.086,39.172-26.947c20.447-29.934,48.076-32.582,48.076-45.1
	c0-9.297-8.173-14.217-16.698-16.275l14.089-24.168c0.463,0.053,0.911,0.133,1.385,0.133c6.093,0,11.027-4.93,11.027-11.023
	C311.604,101.009,306.669,96.069,300.576,96.069z"/>
</svg>
